# Exported from ProBuilder
# http://www.procore3d.com/probuilder
# 2/1/2018 4:13:19 PM

mtllib ./oven.mtl
o oven

g Cube
v 6.33 0 0
v 3.33 0 0
v 6.210064 2 -0.07995754
v 3.449936 2 -0.07995754
v 3.33 0 0
v 3.33 0 -2
v 3.449936 2 -0.07995754
v 3.449936 2 -1.920043
v 4.088301 0.4988893 -3.271024
v 5.591644 0.4988893 -3.271024
v 4.148402 1.501119 -3.230957
v 5.531542 1.501119 -3.230957
v 6.33 0 -2
v 6.33 0 0
v 6.210064 2 -1.920043
v 6.210064 2 -0.07995754
v 5.622141 3.498882 -0.4719062
v 4.037859 3.498882 -0.4719062
v 5.622141 3.498882 -1.528094
v 4.037859 3.498882 -1.528094
v 6.33 0 -2
v 3.33 0 -2
v 6.33 0 0
v 3.33 0 0
v 6.210064 2 -0.07995754
v 3.449936 2 -0.07995754
v 6.210064 2.651802 -0.07995754
v 3.449936 2.651802 -0.07995754
v 6.210064 2 -1.920043
v 6.210064 2 -0.07995754
v 6.210064 2.651802 -1.920043
v 6.210064 2.651802 -0.07995754
v 3.449936 2 -0.07995754
v 3.449936 2 -1.920043
v 3.449936 2.651802 -0.07995754
v 3.449936 2.651802 -1.920043
v 3.449936 2 -1.920043
v 6.210064 2 -1.920043
v 3.449936 2.651802 -1.920043
v 6.210064 2.651802 -1.920043
v 6.210064 2.651802 -0.07995754
v 3.449936 2.651802 -0.07995754
v 5.622141 3.498882 -0.4719062
v 4.037859 3.498882 -0.4719062
v 6.210064 2.651802 -1.920043
v 6.210064 2.651802 -0.07995754
v 5.622141 3.498882 -1.528094
v 5.622141 3.498882 -0.4719062
v 3.449936 2.651802 -0.07995754
v 3.449936 2.651802 -1.920043
v 4.037859 3.498882 -0.4719062
v 4.037859 3.498882 -1.528094
v 3.449936 2.651802 -1.920043
v 6.210064 2.651802 -1.920043
v 4.037859 3.498882 -1.528094
v 5.622141 3.498882 -1.528094
v 3.33 0 -2
v 6.33 0 -2
v 4.088301 0.4988894 -1.032789
v 5.591644 0.4988894 -1.032789
v 3.449936 2 -1.920043
v 3.33 0 -2
v 4.148402 1.501119 -0.9927211
v 4.088301 0.4988894 -1.032789
v 6.33 0 -2
v 6.210064 2 -1.920043
v 5.591644 0.4988894 -1.032789
v 5.531542 1.501119 -0.9927211
v 6.210064 2 -1.920043
v 3.449936 2 -1.920043
v 5.531542 1.501119 -0.9927211
v 4.148402 1.501119 -0.9927211
v 4.088301 0.4988894 -1.032789
v 5.591644 0.4988894 -1.032789
v 4.088301 0.4988893 -3.271024
v 5.591644 0.4988893 -3.271024
v 4.148402 1.501119 -0.9927211
v 4.088301 0.4988894 -1.032789
v 4.148402 1.501119 -3.230957
v 4.088301 0.4988893 -3.271024
v 5.591644 0.4988894 -1.032789
v 5.531542 1.501119 -0.9927211
v 5.591644 0.4988893 -3.271024
v 5.531542 1.501119 -3.230957
v 5.531542 1.501119 -0.9927211
v 4.148402 1.501119 -0.9927211
v 5.531542 1.501119 -3.230957
v 4.148402 1.501119 -3.230957

vn 0 0.03994686 0.9992018
vn 0 0.03994687 0.9992019
vn 0 0.03994686 0.9992018
vn 0 0.03994686 0.9992018
vn -0.9982067 0.05986045 0
vn -0.9982067 0.05986046 0
vn -0.9982068 0.05986046 0
vn -0.9982067 0.05986045 0
vn 0 0.03994664 -0.9992018
vn 0 0.03994664 -0.9992018
vn 0 0.03994664 -0.9992018
vn 0 0.03994664 -0.9992018
vn 0.9982067 0.05986051 0
vn 0.9982067 0.05986052 0
vn 0.9982068 0.05986052 0
vn 0.9982067 0.05986051 0
vn 0 1 0
vn 0 1 0
vn 0 1 0
vn 0 1 0
vn 0 -1 0
vn 0 -1 0
vn 0 -1 0
vn 0 -1 0
vn 0 0 1
vn 0 0 1
vn 0 0 1
vn 0 0 1
vn 1 0 0
vn 1 0 0
vn 1 0 0
vn 1 0 0
vn -1 0 0
vn -1 0 0
vn -1 0 0
vn -1 0 0
vn 0 0 -1
vn 0 0 -1
vn 0 0 -1
vn 0 0 -1
vn 0 0.4199312 0.9075559
vn 0 0.4199312 0.9075559
vn 0 0.4199312 0.9075559
vn 0 0.4199312 0.9075559
vn 0.8215184 0.5701819 0
vn 0.8215184 0.5701819 0
vn 0.8215184 0.570182 0
vn 0.8215184 0.5701819 0
vn -0.8215184 0.570182 0
vn -0.8215184 0.570182 0
vn -0.8215184 0.570182 0
vn -0.8215184 0.570182 0
vn 0 0.4199313 -0.9075559
vn 0 0.4199313 -0.9075559
vn 0 0.4199312 -0.9075559
vn 0 0.4199313 -0.9075559
vn 0 0.8887391 -0.4584133
vn 0 0.8887392 -0.4584133
vn 0 0.8887392 -0.4584133
vn 0 0.8887391 -0.4584133
vn 0.7925258 -0.02316325 -0.6093984
vn 0.7925259 -0.02316321 -0.6093983
vn 0.7925257 -0.02316334 -0.6093985
vn 0.7925258 -0.02316325 -0.6093984
vn -0.8005834 -0.02407269 -0.5987376
vn -0.8005834 -0.02407265 -0.5987377
vn -0.8005834 -0.02407276 -0.5987375
vn -0.8005834 -0.02407269 -0.5987376
vn 0 -0.8806477 -0.4737718
vn 0 -0.8806477 -0.4737717
vn 0 -0.8806477 -0.4737717
vn 0 -0.8806477 -0.4737718
vn 0 -1 2.663019E-08
vn 0 -1 2.663019E-08
vn 0 -1 2.663019E-08
vn 0 -1 2.663019E-08
vn -0.9982068 0.05986053 -1.657707E-09
vn -0.9982069 0.05986054 -3.315415E-09
vn -0.9982067 0.05986051 0
vn -0.9982068 0.05986053 -1.657707E-09
vn 0.9982068 0.05986052 -7.970488E-10
vn 0.9982068 0.05986052 0
vn 0.9982067 0.05986051 -1.594097E-09
vn 0.9982068 0.05986052 -7.970488E-10
vn 0 1 0
vn 0 1 0
vn 0 1 0
vn 0 1 0

vt 0 0
vt -3 0
vt -0.1199361 2.001598
vt -2.880064 2.001598
vt 0 -0.1795814
vt -2 -0.1795814
vt -0.07995754 1.824012
vt -1.920043 1.824012
vt 2.241699 0.3678247
vt 0.7383557 0.3678247
vt 2.181598 1.370855
vt 0.7984574 1.370855
vt 2 0
vt 0 0
vt 1.920043 2.003593
vt 0.07995754 2.003593
vt 0.7078593 -0.4719062
vt 2.292141 -0.4719062
vt 0.7078593 -1.528094
vt 2.292141 -1.528094
vt 0 -2
vt -3 -2
vt 0 0
vt -3 0
vt -0.1199361 2
vt -2.880064 2
vt -0.1199361 2.651802
vt -2.880064 2.651802
vt 1.920043 2
vt 0.07995754 2
vt 1.920043 2.651802
vt 0.07995754 2.651802
vt -0.07995754 2
vt -1.920043 2
vt -0.07995754 2.651802
vt -1.920043 2.651802
vt 2.880064 2
vt 0.1199361 2
vt 2.880064 2.651802
vt 0.1199361 2.651802
vt -0.1199361 2.440235
vt -2.880064 2.440235
vt -0.7078593 3.373599
vt -2.292141 3.373599
vt 1.920043 2.246889
vt 0.07995754 2.246889
vt 1.528094 3.278004
vt 0.4719062 3.278004
vt -0.07995754 0.536343
vt -1.920043 0.536343
vt -0.4719062 1.567458
vt -1.528094 1.567458
vt 2.880064 1.600372
vt 0.1199361 1.600372
vt 2.292141 2.533736
vt 0.7078593 2.533736
vt 3 -1.777478
vt 0 -1.777478
vt 2.241699 -0.6891823
vt 0.7383557 -0.6891823
vt 3.277669 1.973688
vt 3.414163 -0.02684826
vt 2.116787 1.474673
vt 2.185186 0.472175
vt -1.601631 0.02883476
vt -1.465769 2.029414
vt -0.3848637 0.5278687
vt -0.3167813 1.530389
vt -0.1199361 -2.638425
vt -2.880064 -2.638425
vt -0.7984574 -1.585425
vt -2.181598 -1.585425
vt -2.241699 -1.032789
vt -0.7383557 -1.032789
vt -2.241699 -3.271024
vt -0.7383557 -3.271024
vt -0.9927211 1.367835
vt -1.032789 0.3638055
vt -3.230957 1.367835
vt -3.271024 0.3638054
vt 1.032789 0.5421931
vt 0.9927211 1.546223
vt 3.271024 0.5421931
vt 3.230957 1.546223
vt 0.7984574 -0.9927211
vt 2.181598 -0.9927211
vt 0.7984574 -3.230957
vt 2.181598 -3.230957

g Cube
usemtl Default_Prototype
f 3/3/3 4/4/4 2/2/2 1/1/1
f 7/7/7 8/8/8 6/6/6 5/5/5
f 11/11/11 12/12/12 10/10/10 9/9/9
f 15/15/15 16/16/16 14/14/14 13/13/13
f 19/19/19 20/20/20 18/18/18 17/17/17
f 23/23/23 24/24/24 22/22/22 21/21/21
f 27/27/27 28/28/28 26/26/26 25/25/25
f 31/31/31 32/32/32 30/30/30 29/29/29
f 35/35/35 36/36/36 34/34/34 33/33/33
f 39/39/39 40/40/40 38/38/38 37/37/37
f 43/43/43 44/44/44 42/42/42 41/41/41
f 47/47/47 48/48/48 46/46/46 45/45/45
f 51/51/51 52/52/52 50/50/50 49/49/49
f 55/55/55 56/56/56 54/54/54 53/53/53
f 59/59/59 60/60/60 58/58/58 57/57/57
f 63/63/63 64/64/64 62/62/62 61/61/61
f 67/67/67 68/68/68 66/66/66 65/65/65
f 71/71/71 72/72/72 70/70/70 69/69/69
f 75/75/75 76/76/76 74/74/74 73/73/73
f 79/79/79 80/80/80 78/78/78 77/77/77
f 83/83/83 84/84/84 82/82/82 81/81/81
f 87/87/87 88/88/88 86/86/86 85/85/85

